<svg xmlns="http://www.w3.org/2000/svg" aria-hidden="true" style="position:absolute;width:0;height:0;overflow:hidden">
  <defs>
    <symbol id="icon-arrow" viewBox="0 0 17 32">
      <path d="M1.558 28.676a1.523 1.523 0 0 0-.283 1.67 1.51 1.51 0 0 0 .848.801 1.53 1.53 0 0 0 1.651-.377l12.952-13.714a1.521 1.521 0 0 0 0-2.094L3.774 1.246a1.533 1.533 0 0 0-1.66-.395 1.513 1.513 0 0 0-.985 1.392 1.525 1.525 0 0 0 .43 1.094l11.965 12.67L1.559 28.674z"/>
    </symbol>
    <symbol id="icon-burger-cross" viewBox="0 0 32 32">
      <path stroke-linecap="round" stroke-linejoin="round" stroke-width="4" d="M3.2 3.2 16 16m0 0L3.2 28.8M16 16l12.8 12.8M16 16 28.8 3.2"/>
    </symbol>
    <symbol id="icon-facebook" viewBox="0 0 32 32">
      <path stroke-linecap="round" stroke-linejoin="round" stroke-width="1.333" d="M24 2.667h-4a6.67 6.67 0 0 0-6.667 6.667v4h-4v5.333h4v10.667h5.333V18.667h4l1.333-5.333h-5.333v-4A1.334 1.334 0 0 1 20 8h4V2.667z"/>
    </symbol>
    <symbol id="icon-instagram" viewBox="0 0 32 32">
      <path stroke-linecap="round" stroke-linejoin="round" stroke-width="1.333" d="M22.667 2.667H9.334a6.667 6.667 0 0 0-6.667 6.667v13.333a6.667 6.667 0 0 0 6.667 6.667h13.333a6.667 6.667 0 0 0 6.667-6.667V9.334a6.667 6.667 0 0 0-6.667-6.667z"/>
      <path stroke-linecap="round" stroke-linejoin="round" stroke-width="1.333" d="M21.334 15.16a5.329 5.329 0 0 1-2.878 5.546 5.338 5.338 0 0 1-6.169-.992 5.33 5.33 0 0 1 1.316-8.505 5.336 5.336 0 0 1 6.228.962 5.328 5.328 0 0 1 1.504 2.989zM23.333 8.667h.013"/>
    </symbol>
    <symbol id="icon-link" viewBox="0 0 32 32">
      <path stroke-linecap="round" stroke-linejoin="round" stroke-width="1.333" d="M13.333 17.333a6.671 6.671 0 0 0 7.668 2.253 6.674 6.674 0 0 0 2.385-1.533l4-4a6.668 6.668 0 0 0-4.737-11.297 6.668 6.668 0 0 0-4.689 1.871l-2.293 2.28"/>
      <path stroke-linecap="round" stroke-linejoin="round" stroke-width="1.333" d="M18.667 14.667a6.671 6.671 0 0 0-7.668-2.253 6.674 6.674 0 0 0-2.385 1.533l-4 4a6.668 6.668 0 0 0 4.737 11.297 6.668 6.668 0 0 0 4.689-1.871l2.28-2.28"/>
    </symbol>
    <symbol id="icon-mail" viewBox="0 0 32 32">
      <path stroke-linecap="round" stroke-linejoin="round" stroke-width="1.333" d="M5.333 5.333h21.333c1.467 0 2.667 1.2 2.667 2.667v16c0 1.467-1.2 2.667-2.667 2.667H5.333A2.675 2.675 0 0 1 2.666 24V8c0-1.467 1.2-2.667 2.667-2.667z"/>
      <path stroke-linecap="round" stroke-linejoin="round" stroke-width="1.333" d="M29.333 8 16 17.333 2.667 8"/>
    </symbol>
    <symbol id="icon-x" viewBox="0 0 32 32">
      <path stroke-linecap="round" stroke-linejoin="round" stroke-width="2.5" d="M24 8 8 24M8 8l16 16"/>
    </symbol>
    <symbol id="icon-star" viewBox="0 0 32 32">
      <path stroke-width="2.4" d="M19.6 9.395c.279.528.758.917 1.324 1.084l.246.057 7.6 1.313-5.375 5.535a2.198 2.198 0 0 0-.621 1.592l.022.254 1.098 7.635-6.922-3.402-.234-.1a2.203 2.203 0 0 0-1.473 0l-.234.1-6.924 3.402 1.1-7.635a2.197 2.197 0 0 0-.434-1.654l-.166-.191L3.23 11.85l7.602-1.313a2.198 2.198 0 0 0 1.439-.924l.131-.217 3.6-6.822 3.6 6.822z"/>
    </symbol>
  </defs>
</svg>
